<mxfile host="Electron" modified="2023-04-29T16:40:49.420Z" agent="Mozilla/5.0 (Windows NT 10.0; Win64; x64) AppleWebKit/537.36 (KHTML, like Gecko) draw.io/21.2.1 Chrome/112.0.5615.87 Electron/24.1.2 Safari/537.36" etag="EH2vgddIwdIEqxovq9Dj" version="21.2.1" type="device">
  <diagram name="Seite-1" id="-OF-ZSS3aBh2ymCri9m0">
    <mxGraphModel dx="780" dy="496" grid="1" gridSize="10" guides="1" tooltips="1" connect="1" arrows="1" fold="1" page="1" pageScale="1" pageWidth="827" pageHeight="1169" math="1" shadow="0">
      <root>
        <mxCell id="0" />
        <mxCell id="1" parent="0" />
        <mxCell id="LC1KP4JhzZ3fK50uOrn6-2" value="" style="endArrow=classic;html=1;rounded=0;" parent="1" edge="1">
          <mxGeometry width="50" height="50" relative="1" as="geometry">
            <mxPoint x="115" y="680" as="sourcePoint" />
            <mxPoint x="510" y="680" as="targetPoint" />
          </mxGeometry>
        </mxCell>
        <mxCell id="LC1KP4JhzZ3fK50uOrn6-5" value="" style="endArrow=classic;html=1;rounded=0;" parent="1" edge="1">
          <mxGeometry width="50" height="50" relative="1" as="geometry">
            <mxPoint x="120" y="685" as="sourcePoint" />
            <mxPoint x="120" y="290" as="targetPoint" />
          </mxGeometry>
        </mxCell>
        <mxCell id="LC1KP4JhzZ3fK50uOrn6-7" value="" style="curved=1;endArrow=none;html=1;rounded=0;endFill=0;strokeWidth=3;" parent="1" edge="1">
          <mxGeometry width="50" height="50" relative="1" as="geometry">
            <mxPoint x="120" y="680" as="sourcePoint" />
            <mxPoint x="510" y="430" as="targetPoint" />
            <Array as="points">
              <mxPoint x="140" y="680" />
              <mxPoint x="180" y="290" />
              <mxPoint x="230" y="520" />
              <mxPoint x="280" y="370" />
              <mxPoint x="330" y="480" />
              <mxPoint x="390" y="410" />
              <mxPoint x="450" y="440" />
            </Array>
          </mxGeometry>
        </mxCell>
        <mxCell id="LC1KP4JhzZ3fK50uOrn6-8" value="" style="endArrow=none;html=1;rounded=0;dashed=1;dashPattern=8 8;" parent="1" edge="1">
          <mxGeometry width="50" height="50" relative="1" as="geometry">
            <mxPoint x="116" y="431" as="sourcePoint" />
            <mxPoint x="508" y="431" as="targetPoint" />
          </mxGeometry>
        </mxCell>
        <mxCell id="LC1KP4JhzZ3fK50uOrn6-10" value="" style="endArrow=none;html=1;rounded=0;dashed=1;dashPattern=8 8;" parent="1" edge="1">
          <mxGeometry width="50" height="50" relative="1" as="geometry">
            <mxPoint x="187" y="684" as="sourcePoint" />
            <mxPoint x="187" y="364" as="targetPoint" />
          </mxGeometry>
        </mxCell>
        <mxCell id="LC1KP4JhzZ3fK50uOrn6-13" value="" style="endArrow=none;html=1;rounded=0;dashed=1;dashPattern=8 8;" parent="1" edge="1">
          <mxGeometry width="50" height="50" relative="1" as="geometry">
            <mxPoint x="188" y="363" as="sourcePoint" />
            <mxPoint x="116" y="363" as="targetPoint" />
          </mxGeometry>
        </mxCell>
        <mxCell id="LC1KP4JhzZ3fK50uOrn6-15" value="\(h_{\mathrm{max}}\)" style="text;html=1;strokeColor=none;fillColor=none;align=center;verticalAlign=middle;whiteSpace=wrap;rounded=0;fontSize=20;" parent="1" vertex="1">
          <mxGeometry x="56" y="345" width="60" height="30" as="geometry" />
        </mxCell>
        <mxCell id="LC1KP4JhzZ3fK50uOrn6-16" value="\(h(\infty)\)" style="text;html=1;strokeColor=none;fillColor=none;align=center;verticalAlign=middle;whiteSpace=wrap;rounded=0;fontSize=20;" parent="1" vertex="1">
          <mxGeometry x="57" y="414" width="60" height="30" as="geometry" />
        </mxCell>
        <mxCell id="LC1KP4JhzZ3fK50uOrn6-18" value="\(t_{\mathrm{max}}\)" style="text;html=1;strokeColor=none;fillColor=none;align=center;verticalAlign=middle;whiteSpace=wrap;rounded=0;fontSize=20;" parent="1" vertex="1">
          <mxGeometry x="160" y="682" width="60" height="30" as="geometry" />
        </mxCell>
        <mxCell id="LC1KP4JhzZ3fK50uOrn6-19" value="\(0\)" style="text;html=1;strokeColor=none;fillColor=none;align=center;verticalAlign=middle;whiteSpace=wrap;rounded=0;fontSize=20;" parent="1" vertex="1">
          <mxGeometry x="73" y="665" width="60" height="30" as="geometry" />
        </mxCell>
        <mxCell id="LC1KP4JhzZ3fK50uOrn6-20" value="\(0\)" style="text;html=1;strokeColor=none;fillColor=none;align=center;verticalAlign=middle;whiteSpace=wrap;rounded=0;fontSize=20;" parent="1" vertex="1">
          <mxGeometry x="90" y="684" width="60" height="30" as="geometry" />
        </mxCell>
        <mxCell id="LC1KP4JhzZ3fK50uOrn6-21" value="\(t\)" style="text;html=1;strokeColor=none;fillColor=none;align=center;verticalAlign=middle;whiteSpace=wrap;rounded=0;fontSize=20;" parent="1" vertex="1">
          <mxGeometry x="470" y="684" width="60" height="30" as="geometry" />
        </mxCell>
        <mxCell id="LC1KP4JhzZ3fK50uOrn6-22" value="\(h(t)\)" style="text;html=1;strokeColor=none;fillColor=none;align=center;verticalAlign=middle;whiteSpace=wrap;rounded=0;fontSize=20;" parent="1" vertex="1">
          <mxGeometry x="59" y="292" width="60" height="30" as="geometry" />
        </mxCell>
      </root>
    </mxGraphModel>
  </diagram>
</mxfile>
